<svg version="1.1" xmlns="http://www.w3.org/2000/svg" xmlns:xlink="http://www.w3.org/1999/xlink"
     viewBox="0 -150 800 800" width="512px" height="512px"
     xml:space="preserve" >
    <g fill="#F34E6C">
        <path d="M716.83,183.92c1.21,0.31,2.42,0.59,3.67,0.88c17.55,4.58,35.8,5.79,53.81,3.56  c7.84-0.69,15.29-3.79,21.28-8.91c5.09-4.38,6.52-11.65,3.49-17.64c-3.74-7.69-21.31-14.73-35.39-16.51  c-1.19-0.11-1.32-0.44-0.37-0.94c11.15-4.9,16.96-11.6,11.88-19.61c-4-4.97-9.67-8.29-15.94-9.37c-9.72-2.25-19.77-2.59-29.61-1.02  c-15.01,1.98-29.28,7.79-41.4,16.89c-13.3,10.72-25.22,23.06-35.45,36.75l0.24-0.06C661.45,168.83,709.27,181.68,716.83,183.92"/>
        <path d="M404.32,163.72c8.63,0,11.64,4.93,12.77,8.19c0.39,2.21,2.3,9.58,22.64,66.57  c-7.27,4.54-15.3,7.78-23.69,9.57c-0.69,0.11-1.31,0.54-1.68,1.14c-0.08,0.16-0.12,0.33-0.12,0.51c0,0.37,0.14,0.73,0.41,1  c0.69,0.53,1.08,1.36,1.03,2.23l-0.32,1.39c-2.49,2.73-6.11,4.13-9.8,3.8l-3.7,0.64c-0.32,0.01-0.63,0.09-0.9,0.25l-0.61,0.24  c-0.63,0.22-1.1,0.71-1.31,1.32v0.28c-0.02,0.43,0.18,0.87,0.54,1.13l0.27,0.22c4.01,1.39,8.29,1.82,12.5,1.25l1.36,0.11  c0.09,0,3.5-0.18,3.5-0.18c3.12-0.95,6.49-0.18,8.89,2.02c0.26,0.48,0.4,1,0.42,1.55c-0.05,1.2-0.5,2.36-1.29,3.26  c-4.81,3.09-10.53,4.41-16.22,3.78h-2.94l-6.45,0.23c-0.9-0.02-1.77,0.43-2.26,1.18c-0.24,0.77,0.18,1.6,0.96,1.84  c0.02,0.01,0.05,0.02,0.07,0.03c2.82,1,5.84,1.34,8.8,1.02l3.68,0.09c0.2,0,2.59,0.23,2.59,0.23c3.5-0.32,7.04-0.16,10.51,0.48  c2,0.39,3.67,1.75,4.47,3.61c0.17,1.51-0.68,2.94-2.08,3.48c-5.18,2.07-10.82,2.75-16.34,2.01c-3.32-0.12-6.65-0.01-9.94,0.38  c-0.84,0.08-1.58,0.55-2.01,1.26c-0.2,0.72,0.18,1.47,0.88,1.75c3.92,1.25,8.05,1.64,12.13,1.17c2.13-0.09,4.25,0.01,6.36,0.31  c1.77,0.36,3.37,1.3,4.55,2.65c1,0.88,2.41,1.13,3.66,0.64c10.98-3.25,21.27-8.47,30.37-15.4c2.63,6.71,24.88,62.45,24.88,62.45  c1.5,3.42,2.33,7.07,2.45,10.8c-0.22,4.42-2.45,8.53-6.07,11.1c-0.34,0.23-0.54,0.62-0.55,1.04c0,0.47,0.25,0.92,0.67,1.18  c1.06,0.6,2.35,0.7,3.48,0.27c15.15-5.65,30.87-9.62,46.89-11.85c24.49-3.5,49.35-3.36,73.79,0.41c1.51-0.17,3.02,0.29,4.17,1.3  c0.04,0.1,0.08,0.2,0.08,0.3c-0.29,0.9-1.01,1.59-1.91,1.87c-0.06,0-9.1,2.25-9.1,2.25c-5.81,1.81-11.92,2.5-17.97,2.02  c-12.62-1.14-25.32-0.75-37.84,1.16c-19.93,2.78-34.5,7.92-41.1,14.48c-3.04,2.43-4.29,6.48-3.16,10.2  c3.84,10.23,31.91,15.57,62.57,11.98c13.85-1.31,27.25-5.71,39.22-12.84c0.58-0.42,0.73-1.25,0.3-1.86  c-0.02-0.03-0.05-0.07-0.08-0.08c-0.77-0.69-1.8-1-2.84-0.81l-41.19,4.32c-3.54,1.14-7.41,0.19-10.05-2.45l-2.41-6.43  c-0.23-0.79,0.03-1.66,0.66-2.19c1.94-1.48,4.26-2.38,6.69-2.63c0.35-0.05,43.94-5.34,80.96-6.98c13.33-0.62,20.37-0.1,26.56,4.18  c5.36,3.72,1.35,10.23-0.34,12.99l-0.53,0.81c-0.55,1.31-14.69,29.32-92.04,37.67c-70.4,7.57-105.61-6.04-114.36-20.07  c-0.73-0.83-1.86-1.24-2.97-1.08c-1.02-0.04-1.96,0.57-2.35,1.51l-0.92,6.76c-0.05,2.48,0.24,4.95,0.87,7.35  c3.62,13.61,16.08,25.57,36.11,34.51c35.19,13.71,73.28,18.23,110.69,13.14c66.06-7.36,114.55-36.99,115.05-68.34  c-0.01-2.83-0.34-5.64-1-8.39c-6.11-22.95-38.75-40.41-89.61-47.87c-14.68-2.27-28.01-9.83-37.5-21.25  c-4.69-6.82-8.47-11.43-13.31-17.42c-23.77-29.17-45.69-59.78-65.65-91.67c3.23-7.46,10.38-12.46,18.48-12.95  c12.25,1,16.93,11.79,23.49,26.81c11.18,25.83,26.63,61.19,91.25,80.53c29.03,8.76,44.74,5.46,49.37,0  c5.38-6.27,0.2-15.03-14.97-25.27c-13.07-8.86-14.38-12.8-13.25-13.57c1.41-0.39,2.9-0.15,4.13,0.67l7.45,4.09  c18.22,10.47,38.98,15.74,59.98,15.23c9.19,0.36,18.31-1.65,26.49-5.84c5.26-2.41,7.89-8.38,6.13-13.89  c-2.73-6.28-13.08-11.24-28.96-14.02c-19.61-3.42-27.2-7.82-27.83-9.46c-0.08-0.23,0-0.48,0.2-0.61c2.18-0.58,4.47-0.49,6.58,0.28  l0.11-0.09c31.45,7.25,66.98,2.27,81.8-6.42c6.98-4.08,9.54-8.8,7.47-13.71c-3.18-7.35-19.22-10.94-55.26-12.55  c-58.49-1.4-113.65-27.52-151.81-71.88l-6.2-6.54l-4.08-4.44c-17.4-18.79-25.33-27.39-45.24-26.38  c-25.65,1.32-39.87,39.35-52.4,72.96c0,0-1.24,3.54-2.38,6.81c-4.67-7.28-38.16-60.13-38.16-60.13c-0.59-1.32-0.89-2.74-0.88-4.2  c0.08-4.38,2.98-10.38,15.01-13.62c33-8.72,55.93-24.67,58.23-40.66c0.31-1.28,0.48-2.58,0.51-3.9c0.26-17-22.06-34.43-55.43-42.42  c-16.53-5.01-34-6.13-51.03-3.27l-0.11-0.08c5.87-3.57,12.72-5.25,19.6-4.77c13.14,1.98,18.17,0.65,20.06-0.83  c1.32-0.97,1.62-2.83,0.66-4.15c-0.13-0.19-0.28-0.36-0.46-0.51c-2.09-1.92-4.78-3.07-7.63-3.27c-9-1.46-18.2-0.9-26.96,1.63  c-5.87,2.08-10.57,6.58-12.91,12.36l-1.48-0.32c-2.13-5.61-6.61-10-12.25-12.04c-8.73-2.54-17.92-3.1-26.91-1.63  c-2.87,0.21-5.6,1.35-7.75,3.27c-0.57,0.66-0.93,1.48-1,2.36c0.01,0.83,0.42,1.6,1.09,2.07c6.38,2.5,13.38,2.87,19.97,1.05  c7.11-0.24,14.11,1.79,19.97,5.83c-20.13-2.42-40.54,0.22-59.41,7.65c-17.76,6.38-32.75,18.74-42.39,34.96  c-1.78,5.54-6.63,9.52-12.41,10.2c-6.08-3.2-13.27-3.6-19.67-1.06c-5.39,1.17-8.81,6.51-7.63,11.9c0.05,0.17,0.08,0.35,0.13,0.51  c1.96,4.4,5.58,7.87,10.06,9.61c10.05,3.58,20.73,4.98,31.35,4.08c0.16,0.66,0.29,1.33,0.29,1.33c2.91,3.98,6.96,7,11.61,8.65  c8.76,3.85,18.5,4.83,27.84,2.8c0.58,0.39,4.97,3.21,4.97,3.21c10.49,4.51,22.25,5.05,33.1,1.54c1.99,2.05,3.12,4.76,3.14,7.61  c0,1.46-0.35,2.89-1,4.2c0-0.07-34.94,52.42-45.6,68.45c-2.13-4.93-3.95-9.97-5.46-15.14c-0.08,0-3.53-10.25-3.53-10.25  c-11.33-33.6-21.16-62.67-46.87-62.74c-20.54-0.06-29.07,8.8-49.61,30.23l-0.58,0.63l-6.32,6.5c-39.2,44.19-94.94,70.2-153.98,71.88  c-36.17,1.64-52.27,5.24-55.65,12.55c-2.22,4.89,0.18,9.63,7.05,13.7c14.62,8.7,49.95,13.67,81.64,6.43  c2.1-0.75,4.38-0.85,6.54-0.28c0.21,0.13,0.27,0.4,0.16,0.61c-0.66,1.63-8.33,6.05-28.12,9.46c-15.96,2.78-26.4,7.75-29.41,14.03  c-1.92,5.41,0.54,11.38,5.72,13.88c8.12,4.21,17.19,6.23,26.32,5.84c21.18,0.49,42.1-4.8,60.54-15.24c-0.13,0.08-0.32,0-0.44,0.09  c1.03-0.44,2.9-1.43,7.87-4.13c1.24-0.8,2.76-1.04,4.2-0.68c1.13,0.82-0.32,4.71-13.68,13.57c-15.45,10.23-20.86,18.99-15.73,25.27  c4.55,5.43,20.22,8.71,49.42,0c62.08-22.87,79.74-56.42,92.57-80.94c7.64-14.53,13.12-25.04,25.32-26.4  c10.57-1.23,18.2,10.51,21.57,20.96c-19.33,29-40.38,56.83-63.03,83.33c-4.99,5.58-9.68,11.42-14.07,17.47  c-6.07,7.02-13.6,12.64-22.07,16.44c-0.6,0.23-1.04,0.79-1.14,1.44c0.01,0.17,0.05,0.35,0.11,0.5c0.57,0.83,1.54,1.29,2.54,1.21  l5.92,0.07c9.92,0.16,19.83,1,29.64,2.56c20.24,2.74,39.86,8.91,58.01,18.26c1.15,0.4,2.05,1.31,2.44,2.46v0.42  c-1,1.27-2.53,2-4.13,2l-5.17,0.81c-5.1,0.68-10.28,0.15-15.14-1.55l-0.59-0.2l-20.86-5.45c-0.24,0-10.13-2.09-10.13-2.09  l-1.71-0.25c-34.41-4.76-54.54,1.63-58.67,9.6c-0.07,0.22-0.18,0.41-0.18,0.41c-0.68,1.12-1.04,2.39-1.05,3.69  c0.01,2.2,0.89,4.29,2.44,5.84c5.73,6.68,21.06,12.19,42.13,15.09c0.08,0,0.64,0.08,0.64,0.08l1.15,0.18l10.78,0.83l24.91-0.09  c5.08-0.36,10.16,0.52,14.83,2.55L293.7,403c3.05,1.1,5.06,4.03,4.97,7.28c-1,2.7-5.81,4.79-14.31,6.17  c-24.31,2.77-48.89,2.37-73.09-1.27c-9.76-1.63-19.73-3.26-28.59-5.54c0.05,0-8.57-2.38-8.57-2.38l-7.98-2.57  c-27.58-9.62-43.86-22.5-43.7-34.37l0.29-2.22l0.11-0.45c0.07-0.08,0.08-0.18,0.1-0.27c-0.14-0.8-0.76-1.41-1.55-1.54  c-1.08-0.33-2.24-0.2-3.2,0.38c-9.49,5.53-16.74,14.2-20.5,24.51c-0.76,2.74-1.19,5.56-1.28,8.38  c-0.51,31.7,48.1,61.08,113.01,68.36c37.55,5.05,75.77,0.53,111.11-13.17c20.27-8.94,33.07-20.89,37.08-34.49  c0.72-2.44,1.1-4.96,1.12-7.49c0.18-12.06-7.59-24.62-23.98-39.03c-0.06-0.06-5.77-4.66-5.77-4.66  c-5.89-4.57-10.38-7.94-10.25-14.78c0.21-3.73,1.14-7.38,2.75-10.74c0,0,20.85-48.64,26.85-62.64  c14.54,12.29,32.58,19.7,51.55,21.19c5.89-0.27,11.73-1.21,17.41-2.77c0.84-0.12,1.54-0.65,1.87-1.42c0.08-0.72-0.38-1.41-1.1-1.56  l-1.84-0.7c-0.37-0.11-0.73-0.15-1.1-0.11l-3.91-0.08c-5.37,0.65-10.83-0.2-15.76-2.46c-1.24-0.99-1.52-2.76-0.62-4.08  c1.29-2.45,6.65-2.68,15.31-2.63c4.58,0.6,9.23,0.15,13.61-1.33c0.57-0.12,1.03-0.51,1.26-1.06c0.11-0.45-0.14-0.93-0.6-1.09  l-2.04-1.18c-2.86-0.47-5.77-0.57-8.67-0.31l-3.27-0.19l-3.27-0.11c-6.47,0-12.35-0.31-13.76-3.75c-0.16-0.39-0.24-0.81-0.25-1.24  c0.06-0.84,0.48-1.61,1.15-2.12c3.71-1.74,7.83-2.37,11.88-1.85h2.99c9.4-0.34,11.26-0.92,13.08-2.66c0.2-0.29,0.34-0.59,0.42-0.91  v-0.52c0.1-0.55-0.16-1.13-0.66-1.42c-0.65-0.38-1.4-0.57-2.15-0.54l-2.04,0.08l-4.15,0.23c0.06,0-1.08-0.18-1.08-0.18  c-5.03,0.67-10.15,0.11-14.93-1.63c-1.5-0.52-2.61-1.81-2.89-3.37v-0.38c0.85-1.97,2.69-3.35,4.84-3.6l5.5-0.94  c2.44,0.31,4.92-0.46,6.75-2.1c0.08-0.19,0.12-0.39,0.12-0.59c0.02-0.51-0.2-1-0.57-1.31c-2.91-1.4-6.13-2.01-9.34-1.77h-0.82  l-0.42,0.07c-12.55-0.33-24.82-3.87-35.6-10.28c22.77-58.53,25.54-67.32,25.61-67.9C392.21,167.01,397.15,163.72,404.32,163.72   M455.41,64.95c0.84-0.38,1.79-0.38,2.62,0c6.58,3.69,14.04,5.52,21.59,5.28c6.01-0.17,11.85-1.94,16.95-5.12  c0.87-0.55,1.96-0.62,2.88-0.18c0.23,0.25,0.42,0.54,0.57,0.82c-0.23,0.45-0.37,0.7-0.57,1.09l-2.86,1.49  c-0.49,0.34-0.74,0.91-0.68,1.49c0,0.63,0.11,0.82,2.38,2.2l0.01,0.07v0.65c-0.49,0.48-1.18,0.66-1.83,0.48  c-1.34-0.39-2.61-1.01-3.75-1.81c-0.98-0.39-2.04-0.53-3.08-0.38l-6.07,1.23c-1,0.06-1.89,0.69-2.23,1.63l-0.11,1.34  c-0.21,0.56-0.78,0.92-1.38,0.87c-0.47-0.15-0.59-0.22-1.14-0.38c-0.22-0.25-0.4-0.53-0.57-0.82v-0.24c-0.2-1.2-1.23-2.08-2.44-2.1  c-2.58-0.12-5.14-0.48-7.65-1.06c-1.16-0.3-2.42,0-3.32,0.82c-0.61,0.77-1.39,1.4-2.27,1.83c-0.65,0.26-1.4,0.23-2.01-0.1  c-0.16-0.34-0.16-0.4-0.27-0.69c0.45-0.53,1.08-1.16,1.08-1.16c-0.22,0.17-0.45,0.33-0.7,0.44l1.31-0.97  c0.33-0.19,0.53-0.54,0.54-0.91c0.01-0.11-0.01-0.23-0.05-0.35c-0.23-0.52-0.68-0.91-1.21-1.07l-5.72-2.54  c-0.28-0.41-0.4-0.54-0.59-0.82C454.99,65.54,455.23,65.31,455.41,64.95 M417.76,297.06v0.02c-0.03,0.17-0.16,0.3-0.23,0.46  C417.61,297.38,417.72,297.26,417.76,297.06 M417.41,297.77c-0.23,0.35-0.56,0.64-0.99,0.77c-0.72,0.23-1.5,0.23-2.22,0  C415.96,298.48,416.92,298.32,417.41,297.77 M405.55,66.56l-5.1,2.29c-0.55,0.14-1,0.53-1.24,1.05c-0.02,0.11-0.02,0.23,0,0.36  c0,0.32,0.14,0.62,0.39,0.82l0.1-0.05l1.63,1.52c0-0.06-0.63-0.46-0.69-0.52c-0.05-0.04,0.56,0.66,1.11,1.21  c-0.23,0.37-0.23,0.48-0.42,0.82c-0.65,0.32-1.4,0.34-2.08,0.08c-0.98-0.5-1.81-1.23-2.44-2.13c-0.92-0.86-2.23-1.17-3.44-0.82  c-2.68,0.65-5.42,1.07-8.17,1.28c-1.13-0.14-2.18,0.6-2.45,1.71v0.68c-0.18,0.24-0.27,0.48-0.54,0.89  c-0.58,0.16-0.82,0.22-1.28,0.37c-0.67,0.05-1.29-0.34-1.52-0.95v-0.77v-0.49c-0.34-1-1.25-1.69-2.3-1.72l-6.77-1.21  c-1-0.21-2.04-0.09-2.97,0.33c-1.19,0.73-2.47,1.32-3.8,1.77c-0.7,0.2-1.46,0.01-1.97-0.49c-0.02-0.24-0.02-0.49,0-0.73  c0.65-0.38,1.46-0.87,1.46-0.87c0.45-0.27,0.73-0.75,0.76-1.28v-0.08c-0.07-0.56-0.42-1.05-0.96-1.26c0,0-2.85-1.63-3.38-1.94  c-0.13-0.36-0.28-0.71-0.46-1.05c0.36-0.44,0.58-0.67,0.82-1.01c0.93-0.33,1.95-0.24,2.8,0.24c5.29,3.33,11.35,5.22,17.6,5.46  c7.96,0.2,15.83-1.73,22.81-5.57c0.95-0.45,2.06-0.42,2.99,0.07c0.16,0.3,0.29,0.61,0.4,0.94  C406.05,65.91,405.81,66.23,405.55,66.56 M413.29,85.12c-0.13-0.38-0.29-0.76-0.5-1.12c0.28-0.22,0.51-0.48,0.69-0.78l1.2-0.15  c0.65,0.18,1.29,0.38,1.91,0.64c7.42,5.77,17.16,7.56,26.15,4.81c1.5-0.47,2.95-1.17,4.24-2.08c0.67-0.14,1.22-0.63,1.46-1.28  c0,0,0.21-0.89,0.31-1.55c0.46-0.22,0.62-0.33,1.04-0.53c0.42,0,0.93,0.07,1.32,0.12c0.38,0.26,0.73,0.54,1.06,0.87  c0.1,0.19,0.15,0.38,0.13,0.59c-1.32,3.28-4.32,5.57-7.82,6.01C433.81,94.06,422.15,91.98,413.29,85.12"/>
        <path d="M147.84,168c0,0,0.01,0,0.02,0l0.24-0.04C148.04,167.97,147.91,167.99,147.84,168"/>
        <path d="M112.4,131.25c-12.12-9.09-26.38-14.9-41.41-16.88c-9.84-1.57-19.89-1.21-29.6,1.02  c-6.27,1.08-11.94,4.41-15.94,9.37c-5.07,8.02,0.73,14.7,11.9,19.61c0.94,0.5,0.82,0.82-0.38,0.93  c-14.08,1.77-31.63,8.83-35.37,16.51c-3.04,5.99-1.6,13.28,3.48,17.65c6,5.12,13.44,8.23,21.29,8.9c18,2.24,36.25,1.03,53.79-3.55  c1.25-0.3,2.45-0.57,3.69-0.89c7.97-2.22,55.06-14.85,64.01-15.92C137.62,154.32,125.7,141.96,112.4,131.25"/>
    </g>
</svg>
